<svg width="9" height="13" viewBox="0 0 9 13" fill="none" xmlns="http://www.w3.org/2000/svg">
<path 
    d="M0.0154065 8.1555L0.161464 7.57324C0.402507 6.60748 0.988746 5.59027 1.76861 5.06179L2.02209 1.76697H1.30256C1.19874 1.76697 1.10169 1.73891 1.01821 1.6898C0.852651 1.59229 0.741342 1.412 0.741342 1.20575C0.741342 0.89591 0.992721 0.644531 1.30256 0.644531H7.66303C7.97404 0.644531 8.22425 0.89591 8.22425 1.20575C8.22425 1.412 8.11201 1.59229 7.94832 1.6898C7.86414 1.73891 7.76592 1.76697 7.66303 1.76697H6.9428L7.19769 5.06179C7.97638 5.59027 8.56332 6.60748 8.80418 7.57324L8.94916 8.1555C8.97025 8.24018 8.97184 8.37915 8.97184 8.46845C8.97184 9.13242 7.2584 9.2828 5.04402 9.36294V12.056C5.04402 12.367 4.79381 12.6172 4.46175 12.6172C4.17179 12.6172 3.90053 12.367 3.90053 12.056L3.91714 9.3628C1.70458 9.28217 -0.00694874 9.13205 -0.00694874 8.46845C-0.0105265 8.38338 -0.00297344 8.30682 0.0154065 8.1555ZM2.84591 5.68848L2.39927 5.99247C1.84063 6.36896 1.39804 7.11669 1.22462 7.94577C2.84591 8.33287 6.09864 8.27231 7.70412 7.97928C7.53342 7.28945 7.10415 6.36896 6.56632 5.99247L6.09864 5.68848L5.81803 1.76697H3.14757L2.84591 5.68848Z" 
    stroke-width=5
    fill="red"
/>
</svg> 