<svg aria-hidden="true" focusable="false" data-prefix="far" data-icon="thumbtack" class="svg-inline--fa fa-thumbtack " role="img" xmlns="http://www.w3.org/2000/svg" viewBox="0 0 384 512"><path fill="currentColor" d="M.986 321.2l6.246-24.9C17.54 255 42.61 211.5 75.96 188.9L86.8 48H56.03c-4.44 0-8.59-1.2-12.16-3.3-7.08-4.17-11.84-11.88-11.84-20.7 0-13.25 10.75-24 24-24h272c13.3 0 24 10.75 24 24 0 8.82-4.8 16.53-11.8 20.7-3.6 2.1-7.8 3.3-12.2 3.3h-30.8l10.9 140.9c33.3 22.6 58.4 66.1 68.7 107.4l6.2 24.9c.902 3.621.97 9.564.97 13.383 0 28.394-73.274 34.825-167.97 38.252V488c0 13.3-10.7 24-24.9 24-12.4 0-24-10.7-24-24l.71-115.171C73.222 369.381.03 362.961.03 334.583c-.153-3.638.17-6.912.956-13.383zM122.03 215.7l-19.1 13c-23.89 16.1-42.817 48.076-50.233 83.531 69.333 16.554 208.433 13.964 277.09 1.433-7.3-29.5-25.657-68.864-48.657-84.964l-20-13-12-167.7h-114.2l-12.9 167.7z"></path></svg>