    <svg 
      xmlns="http://www.w3.org/2000/svg" width="54" height="54" viewBox="0 0 54 54" fill="none"
      style="fill: linear-gradient(180deg, #F8E7CE -13.16%, #E5AF7C 103.76%); filter: drop-shadow(0px 0px 22px rgba(245, 221, 192, 0.1);"
      class="day-icon"
    >
      <g filter="url(#filter0_d_6237_1135)">
        <path d="M26.4951 19.5957C26.9393 19.5957 27.2994 19.9558 27.2994 20.4V21.6302C27.2994 22.0744 26.9393 22.4345 26.4951 22.4345C26.0509 22.4345 25.6908 22.0744 25.6908 21.6302V20.4C25.6908 19.9558 26.0509 19.5957 26.4951 19.5957ZM29.8543 27.1658C29.8543 28.9165 28.435 30.3357 26.6843 30.3357C24.9336 30.3357 23.5144 28.9165 23.5144 27.1658C23.5144 25.4151 24.9336 23.9958 26.6843 23.9958C28.435 23.9958 29.8543 25.4151 29.8543 27.1658ZM19.1143 27.355C19.1143 26.9108 19.4744 26.5507 19.9186 26.5507H21.1487C21.5929 26.5507 21.953 26.9108 21.953 27.355C21.953 27.7992 21.5929 28.1593 21.1487 28.1593H19.9186C19.4744 28.1593 19.1143 27.7992 19.1143 27.355ZM33.4501 27.7808C33.8943 27.7808 34.2544 27.4207 34.2544 26.9765C34.2544 26.5323 33.8943 26.1722 33.4501 26.1722H32.2199C31.7757 26.1722 31.4156 26.5323 31.4156 26.9765C31.4156 27.4207 31.7757 27.7808 32.2199 27.7808H33.4501ZM26.0693 33.9315C26.0693 34.3757 26.4294 34.7358 26.8736 34.7358C27.3178 34.7358 27.6779 34.3757 27.6779 33.9315V32.7014C27.6779 32.2572 27.3178 31.8971 26.8736 31.8971C26.4294 31.8971 26.0693 32.2572 26.0693 32.7014V33.9315ZM21.1977 21.9467C21.5117 21.6326 22.021 21.6326 22.3351 21.9467L23.205 22.8166C23.5191 23.1307 23.5191 23.64 23.205 23.9541C22.8909 24.2682 22.3816 24.2682 22.0675 23.9541L21.1977 23.0842C20.8835 22.7701 20.8835 22.2608 21.1977 21.9467ZM31.0335 32.3849C31.3476 32.699 31.8569 32.699 32.171 32.3849C32.4851 32.0707 32.4851 31.5615 32.171 31.2474L31.3012 30.3775C30.9871 30.0634 30.4778 30.0634 30.1637 30.3775C29.8496 30.6916 29.8496 31.2009 30.1637 31.515L31.0335 32.3849ZM31.9034 21.6791C32.2175 21.9933 32.2175 22.5025 31.9034 22.8166L31.0335 23.6865C30.7194 24.0006 30.2101 24.0006 29.896 23.6865C29.5819 23.3724 29.5819 22.8631 29.896 22.549L30.7659 21.6792C31.08 21.365 31.5893 21.365 31.9034 21.6791ZM21.4653 31.515C21.1512 31.8291 21.1512 32.3384 21.4653 32.6525C21.7794 32.9665 22.2887 32.9665 22.6028 32.6525L23.4726 31.7826C23.7867 31.4685 23.7867 30.9592 23.4726 30.6451C23.1585 30.331 22.6492 30.331 22.3351 30.6451L21.4653 31.515Z" fill="url(#paint0_linear_6237_1135)"/>
      </g>
      <defs>
        <filter id="filter0_d_6237_1135" x="0.0142574" y="0.495703" width="53.3401" height="53.3401" filterUnits="userSpaceOnUse" color-interpolation-filters="sRGB">
          <feFlood flood-opacity="0" result="BackgroundImageFix"/>
          <feColorMatrix in="SourceAlpha" type="matrix" values="0 0 0 0 0 0 0 0 0 0 0 0 0 0 0 0 0 0 127 0" result="hardAlpha"/>
          <feOffset/>
          <feGaussianBlur stdDeviation="9.55"/>
          <feComposite in2="hardAlpha" operator="out"/>
          <feColorMatrix type="matrix" values="0 0 0 0 0.960784 0 0 0 0 0.866667 0 0 0 0 0.752941 0 0 0 0.53 0"/>
          <feBlend mode="normal" in2="BackgroundImageFix" result="effect1_dropShadow_6237_1135"/>
          <feBlend mode="normal" in="SourceGraphic" in2="effect1_dropShadow_6237_1135" result="shape"/>
        </filter>
        <linearGradient id="paint0_linear_6237_1135" x1="25.0256" y1="17.603" x2="25.0256" y2="35.3051" gradientUnits="userSpaceOnUse">
          <stop stop-color="#F8E7CE"/>
          <stop offset="1" stop-color="#E5AF7C"/>
        </linearGradient>
      </defs>
    </svg>