<svg width="20" height="17" viewBox="0 0 20 17" fill="none" xmlns="http://www.w3.org/2000/svg">
<path d="M10.3661 7.6427C9.87795 8.11687 9.87795 8.88692 10.3661 9.3611L17.8647 16.6444C18.3529 17.1185 19.1457 17.1185 19.6339 16.6444C20.122 16.1702 20.122 15.4001 19.6339 14.926L13.018 8.5L19.63 2.07403C20.1181 1.59985 20.1181 0.8298 19.63 0.355629C19.1418 -0.118543 18.349 -0.118543 17.8608 0.355629L10.3622 7.6389L10.3661 7.6427Z" fill="white"/>
<path d="M0.366139 7.6427C-0.122047 8.11687 -0.122047 8.88692 0.366139 9.3611L7.86467 16.6444C8.35286 17.1185 9.14567 17.1185 9.63386 16.6444C10.122 16.1702 10.122 15.4001 9.63386 14.926L3.01797 8.5L9.62996 2.07403C10.1181 1.59985 10.1181 0.8298 9.62996 0.355629C9.14177 -0.118543 8.34896 -0.118543 7.86077 0.355629L0.362233 7.6389L0.366139 7.6427Z" fill="white"/>
</svg>
