<svg width="20" height="17" viewBox="0 0 20 17" fill="none" xmlns="http://www.w3.org/2000/svg">
<path d="M9.63386 7.6427C10.122 8.11687 10.122 8.88692 9.63386 9.3611L2.13533 16.6444C1.64714 17.1185 0.854325 17.1185 0.366139 16.6444C-0.122046 16.1702 -0.122046 15.4001 0.366139 14.926L6.98203 8.5L0.370045 2.07403C-0.118141 1.59985 -0.118141 0.8298 0.370045 0.355629C0.858231 -0.118543 1.65104 -0.118543 2.13923 0.355629L9.63777 7.6389L9.63386 7.6427Z" fill="white"/>
<path d="M19.6339 7.6427C20.122 8.11687 20.122 8.88692 19.6339 9.3611L12.1353 16.6444C11.6471 17.1185 10.8543 17.1185 10.3661 16.6444C9.87795 16.1702 9.87795 15.4001 10.3661 14.926L16.982 8.5L10.37 2.07403C9.88186 1.59985 9.88186 0.8298 10.37 0.355629C10.8582 -0.118543 11.651 -0.118543 12.1392 0.355629L19.6378 7.6389L19.6339 7.6427Z" fill="white"/>
</svg>
