<svg width="646" height="646" viewBox="0 0 646 646" fill="none" xmlns="http://www.w3.org/2000/svg">
<path d="M461.155 519.077H428.871V505.419H395.877V489.271L371.31 467.542H334.11V404.826H285.677V327.2L224.606 381.226V484.303H192.323V529.968H178.981V517.219H155.116V542.716H477.303V533.361L461.155 519.077Z" fill="#F4F4F4"/>
<path d="M139.677 542.716H492.742" stroke="black" stroke-width="2" stroke-miterlimit="10"/>
<path d="M289.413 420.536H293.826V424.439H289.413V420.536Z" fill="white"/>
<path d="M300.142 420.536H304.555V424.439H300.142V420.536Z" fill="white"/>
<path d="M310.877 420.536H315.29V424.439H310.877V420.536Z" fill="white"/>
<path d="M289.413 431.058H293.826V434.961H289.413V431.058Z" fill="white"/>
<path d="M300.142 431.058H304.555V434.961H300.142V431.058Z" fill="white"/>
<path d="M310.877 431.058H315.29V434.961H310.877V431.058Z" fill="white"/>
<path d="M289.413 441.581H293.826V445.484H289.413V441.581Z" fill="white"/>
<path d="M300.142 441.581H304.555V445.484H300.142V441.581Z" fill="white"/>
<path d="M310.877 441.581H315.29V445.484H310.877V441.581Z" fill="white"/>
<path d="M289.413 452.103H293.826V456.006H289.413V452.103Z" fill="white"/>
<path d="M300.142 452.103H304.555V456.006H300.142V452.103Z" fill="white"/>
<path d="M310.877 452.103H315.29V456.006H310.877V452.103Z" fill="white"/>
<path d="M289.413 462.619H293.826V466.523H289.413V462.619Z" fill="white"/>
<path d="M300.142 462.619H304.555V466.523H300.142V462.619Z" fill="white"/>
<path d="M310.877 462.619H315.29V466.523H310.877V462.619Z" fill="white"/>
<path d="M289.413 473.142H293.826V477.045H289.413V473.142Z" fill="white"/>
<path d="M300.142 473.142H304.555V477.045H300.142V473.142Z" fill="white"/>
<path d="M310.877 473.142H315.29V477.045H310.877V473.142Z" fill="white"/>
<path d="M289.413 483.665H293.826V487.568H289.413V483.665Z" fill="white"/>
<path d="M300.142 483.665H304.555V487.568H300.142V483.665Z" fill="white"/>
<path d="M310.877 483.665H315.29V487.568H310.877V483.665Z" fill="white"/>
<path d="M289.413 494.187H293.826V498.09H289.413V494.187Z" fill="white"/>
<path d="M300.142 494.187H304.555V498.09H300.142V494.187Z" fill="white"/>
<path d="M310.877 494.187H315.29V498.09H310.877V494.187Z" fill="white"/>
<path d="M289.413 504.71H293.826V508.613H289.413V504.71Z" fill="white"/>
<path d="M300.142 504.71H304.555V508.613H300.142V504.71Z" fill="white"/>
<path d="M310.877 504.71H315.29V508.613H310.877V504.71Z" fill="white"/>
<path d="M448.123 298.955C448.123 298.955 372.297 404.374 445.768 518.955L447.516 541.703L491.929 518.065L467.155 425.161L501.735 364.903L476.806 284.374" fill="#EDEEEF"/>
<path d="M458.381 277.452L530.458 278.716L529.8 350.736V541.703H473.671L479.606 531.071L458.381 277.452Z" fill="#EDEEEF"/>
<path d="M501.8 150.523V172.626L474.426 179.355V142.058L501.8 135.329V150.523Z" fill="#EDEEEF"/>
<path d="M486.336 158.168C486.738 158.168 487.065 157.841 487.065 157.439C487.065 157.036 486.738 156.71 486.336 156.71C485.933 156.71 485.606 157.036 485.606 157.439C485.606 157.841 485.933 158.168 486.336 158.168Z" fill="black"/>
<path d="M497.581 158.168C497.983 158.168 498.31 157.841 498.31 157.439C498.31 157.036 497.983 156.71 497.581 156.71C497.178 156.71 496.852 157.036 496.852 157.439C496.852 157.841 497.178 158.168 497.581 158.168Z" fill="black"/>
<path d="M494.284 161.806V150.523H499.936" stroke="black" stroke-width="2" stroke-miterlimit="10"/>
<path d="M484.955 150.523H490.606" stroke="black" stroke-width="2" stroke-miterlimit="10"/>
<path d="M476.226 156.303V160.226C475.211 160.224 474.238 159.82 473.52 159.101C472.803 158.383 472.4 157.409 472.4 156.394C472.394 156.278 472.394 156.161 472.4 156.045C472.632 153.671 476.226 153.923 476.226 156.303Z" fill="#EDEEEF"/>
<path d="M476.226 160.226C475.211 160.224 474.238 159.82 473.52 159.101C472.803 158.383 472.4 157.409 472.4 156.394" stroke="black" stroke-width="2" stroke-miterlimit="10"/>
<path d="M491.806 164.587C490.78 164.587 489.795 164.179 489.069 163.453C488.343 162.727 487.936 161.743 487.936 160.716" stroke="#FF6498" stroke-width="1.5" stroke-miterlimit="10"/>
<path d="M501.8 172.626L474.426 179.355" stroke="black" stroke-width="2" stroke-miterlimit="10"/>
<path d="M494.284 161.813L491.807 162.426" stroke="black" stroke-width="2" stroke-miterlimit="10" stroke-linecap="round"/>
<path d="M476.619 155.387C476.619 155.387 481.955 150.4 482.039 145.581C482.039 145.581 502.168 148.594 505.181 147.729L503.026 143.6C505.444 142.659 507.775 141.508 509.994 140.161C509.994 140.161 484.103 122.097 472.316 141.11C472.316 141.11 464.432 144.89 472.587 155.387" stroke="black" stroke-width="2" stroke-miterlimit="10"/>
<path d="M530.458 218.929V278.71L445.768 299.529V232.948C445.768 221.476 449.615 210.334 456.693 201.305C463.771 192.276 473.672 185.881 484.813 183.142C490.239 181.81 495.897 181.729 501.359 182.905C506.821 184.081 511.945 186.484 516.341 189.931C520.738 193.379 524.294 197.781 526.74 202.804C529.185 207.828 530.457 213.342 530.458 218.929Z" fill="#FF6498"/>
<path d="M516.961 258.71C505.284 272.142 479.929 270.671 455.252 263.071C460.026 272.477 472.936 279.2 488.116 279.2C507.355 279.2 522.955 268.368 522.955 255.006C522.954 253.756 522.816 252.51 522.542 251.29C520.864 253.895 518.999 256.375 516.961 258.71Z" fill="black"/>
<path d="M479.606 531.071L458.381 277.445" stroke="black" stroke-width="2" stroke-miterlimit="10"/>
<path d="M525.174 199.884C525.174 199.884 542.774 229.032 516.961 258.71C491.148 288.387 398.51 245.29 394.123 224.129C389.736 202.968 393.09 204.774 397.994 209.161C402.897 213.548 405.477 212.516 405.477 212.516C405.477 212.516 406.252 204.258 408.832 206.581C411.413 208.903 412.187 213.29 412.187 213.29L474.426 229.806L489.871 204.258" stroke="black" stroke-width="2" stroke-miterlimit="10"/>
<path d="M470.806 188.884C470.806 188.884 447.826 203.187 438.394 220.232" stroke="black" stroke-width="2" stroke-miterlimit="10"/>
<path d="M408.923 240.794C408.923 240.794 375.974 243.819 359.458 246.568C342.942 249.316 361.523 252.761 361.523 252.761C361.523 252.761 370.097 265.161 384.935 260.335C384.935 260.335 415.097 274.787 445.781 266.871" stroke="black" stroke-width="2" stroke-miterlimit="10"/>
<path d="M150.258 308.852H352.619V455.581H150.258V308.852Z" fill="#D6D6D6"/>
<path d="M352.619 308.852V455.581" stroke="black" stroke-width="2" stroke-miterlimit="10"/>
<path d="M183.116 359.135L181.316 353.09C179.928 348.435 177.075 344.351 173.182 341.445C169.288 338.539 164.562 336.967 159.703 336.961H114.968L150.258 455.574H352.619L323.923 359.135H183.116Z" fill="#EDEEEF"/>
<path d="M150.258 455.581H352.619" stroke="black" stroke-width="2" stroke-miterlimit="10"/>
<path d="M352.619 455.581L323.923 359.135H183.116" stroke="black" stroke-width="2" stroke-miterlimit="10"/>
<path d="M224.052 141.929V281.884H331.529V180.477L292.974 141.929H224.052Z" fill="#D6D6D6"/>
<path d="M224.052 281.884H331.529V180.477" stroke="black" stroke-width="2" stroke-miterlimit="10"/>
<path d="M243.174 201.445H288.058" stroke="black" stroke-width="2" stroke-miterlimit="10"/>
<path d="M243.174 210.897H288.058" stroke="black" stroke-width="2" stroke-miterlimit="10"/>
<path d="M243.174 220.348H288.058" stroke="black" stroke-width="2" stroke-miterlimit="10"/>
<path d="M243.174 229.8H265.613" stroke="black" stroke-width="2" stroke-miterlimit="10"/>
<path d="M185.903 115.955V255.916H293.381V154.51L254.832 115.955H185.903Z" fill="#EDEEEF"/>
<path d="M185.903 255.916H293.381V154.51" stroke="black" stroke-width="2" stroke-miterlimit="10"/>
<path d="M293.381 154.51L254.832 115.955V154.51H293.381Z" fill="#FF6498"/>
<path d="M217.2 175.477H262.084" stroke="black" stroke-width="2" stroke-miterlimit="10"/>
<path d="M217.2 184.929H262.084" stroke="black" stroke-width="2" stroke-miterlimit="10"/>
<path d="M217.2 194.381H262.084" stroke="black" stroke-width="2" stroke-miterlimit="10"/>
<path d="M217.2 203.832H239.645" stroke="black" stroke-width="2" stroke-miterlimit="10"/>
</svg>
